<svg version="1.1" id="Icons" xmlns="http://www.w3.org/2000/svg" xmlns:xlink="http://www.w3.org/1999/xlink" x="0px" y="0px" viewBox="0 0 32 32" style="enable-background:new 0 0 32 32;" xml:space="preserve">
<g>
	<path d="M17,12c-0.3,0-0.5-0.1-0.7-0.3l-4-4c-0.4-0.4-0.4-1,0-1.4l4-4c0.4-0.4,1-0.4,1.4,0s0.4,1,0,1.4L14.4,7l3.3,3.3
		c0.4,0.4,0.4,1,0,1.4C17.5,11.9,17.3,12,17,12z" id="id_101" style="fill: rgb(29, 194, 227);"></path>
</g>
<g>
	<path d="M16,30C9.4,30,4,24.6,4,18c0-3,1.1-5.9,3.2-8.1c0.4-0.4,1-0.4,1.4-0.1c0.4,0.4,0.4,1,0.1,1.4C6.9,13.1,6,15.5,6,18
		c0,5.5,4.5,10,10,10s10-4.5,10-10S21.5,8,16,8h-1c-0.6,0-1-0.4-1-1s0.4-1,1-1h1c6.6,0,12,5.4,12,12S22.6,30,16,30z" id="id_102" style="fill: rgb(0, 213, 255);"></path>
</g>
</svg>